<?xml version="1.0" encoding="utf-8"?>
<!-- Generator: Adobe Illustrator 17.1.0, SVG Export Plug-In . SVG Version: 6.00 Build 0)  -->
<!DOCTYPE svg PUBLIC "-//W3C//DTD SVG 1.1//EN" "http://www.w3.org/Graphics/SVG/1.1/DTD/svg11.dtd">
<svg version="1.1" id="bike-9" xmlns="http://www.w3.org/2000/svg" xmlns:xlink="http://www.w3.org/1999/xlink" x="0px" y="0px"
	 viewBox="0 0 1010.0003 654.5593" enable-background="new 0 0 1010.0003 654.5593" xml:space="preserve">
<path id="bike-9-bike-9" fill="#3E5266" d="M812.574,259.716c-0.0498,0-1.2627,0-1.3125,0
	c-18.1972,0.1182-35.7138,2.919-52.4316,7.6631l-56.586-143.1933l37.9932-66.7246c4.7441-8.3345,2.0713-18.9668-6.0361-24.0762
	L685.4764,2.7503c-8.4034-5.2676-19.4502-2.7422-24.7461,5.6416c-5.2676,8.3736-2.7422,19.4502,5.6318,24.7363l34.1953,21.4922
	l-16.3232,28.5938l1.0254,2.6035L496.577,198.5052c0,0-127.5117,0.2461-128.0048,0.2759l-16.9053-36.1587l51.8999-0.335
	c12.8813-0.0693,23.2378-10.5835,23.1587-23.4551c-0.0786-12.832-10.4942-23.1884-23.3164-23.1884c-0.0396,0-0.0987,0-0.1577,0
	H274.7733c-12.8813,0.0986-23.2773,11.4414-23.1787,24.3232c0.0791,12.832,10.5146,23.1582,23.3164,23.1582
	c0.0596,0,0.0987,0,0.1582,0l37.3814-0.2461l119.9956,256.8579c-3.9253,4.4278-7.2197,9.418-9.5274,14.9512h-29.3535
	c-11.2241-98.2168-95.0615-174.9526-196.0605-174.9526c-0.0391,0-1.2822,0-1.3213,0
	C87.2938,260.4359-0.7062,349.5789,0.0043,458.4188C0.6947,566.5789,89.286,654.5593,197.4262,654.5593c0.0591,0,1.2622,0,1.3217,0
	c52.7285-0.3457,102.1631-21.1855,139.2286-58.7051c30.9902-31.4258,50.0263-71.4004,55.2734-114.5117h32.4893
	c9.2324,16.6387,26.8086,27.9805,47.2055,27.834c0.4141,0,0.8086-0.1192,1.2232-0.1387l13.3349,28.5645l-1.4599,0.0195
	l0.1382,25.1113l60.2739-0.3945l-0.168-25.1113l-19.5586,0.1172l-19.3125-41.2481c11.6192-9.9316,19.1055-24.5488,19.0069-41.0312
	c-0.0694-9.4668-2.7618-18.1973-7.0918-25.8907l171.5117-236.6274l34.4912,87.7334
	C659.7245,312.7697,614.58,380.4305,615.0731,458.4188c0.7198,108.1601,89.3018,196.1406,197.4512,196.1406
	c0.0498,0,1.2529,0,1.3125,0c52.7285-0.3457,102.1631-21.1855,139.2285-58.7363c37.0557-37.5293,57.2754-87.2383,56.9307-139.9688
	C1009.285,347.696,920.7343,259.716,812.574,259.716z M269.4472,434.6883c-7.3579-32.0449-36.0996-55.8242-70.3443-55.5977
	c-39.6303,0.2461-71.5478,32.5372-71.311,72.1875c0.2563,39.6504,32.6074,71.5196,72.2383,71.252
	c28.5439-0.1777,52.9848-17.0137,64.3867-41.1875h87.2104c-5.0102,32.1621-19.7065,61.9004-43.0229,85.5039
	c-29.294,29.6973-68.4116,46.1797-110.1328,46.4551h-1.0454c-85.5337,0-155.6021-69.5957-156.1543-155.1485
	c-0.5718-86.1054,69.0425-156.6074,156.2329-157.1499c78.2549,0,143.3515,58.2906,154.3398,133.6851H269.4472z M481.1112,402.4265
	c-2.8994-0.4629-5.8388-0.8574-8.8769-0.8379c-2.959,0.0293-5.8584,0.3144-8.6797,0.7891L389.956,245.2073l113.2094-0.0791
	c4.1822-0.0195,8.2857-1.164,11.8658-3.3144l145.5117-86.8945L481.1112,402.4265z M923.6932,566.8464
	c-29.294,29.6973-68.4317,46.1797-110.1329,46.4551h-1.0361c-85.5635,0-155.6211-69.5957-156.1836-155.1485
	c-0.374-60.3437,33.7617-112.9043,84.1729-139.2285l29.7177,75.6211c-16.7578,13.2461-27.5087,33.7422-27.3408,56.7617
	c0.2461,39.6016,32.6074,71.5196,72.2285,71.2422c39.5909-0.2461,71.5469-32.5781,71.2715-72.1875
	c-0.2373-39.6211-32.6084-71.539-72.1992-71.291c-3.7871,0.0195-7.4668,0.4336-11.0859,1.0156l-29.0469-73.9448
	c12.3086-3.166,25.1602-5.0693,38.5156-5.168c85.5332,0,155.5919,69.5953,156.1641,155.148
	C969.0038,497.8327,953.0154,537.157,923.6932,566.8464z"/>
</svg>
